<svg version="1.1" id="Layer_1" xmlns="http://www.w3.org/2000/svg" xmlns:xlink="http://www.w3.org/1999/xlink" x="0px" y="0px" width="100%" viewBox="0 0 244 243" enable-background="new 0 0 244 243" xml:space="preserve">

<path fill="#000000" opacity="1.000000" stroke="none" d="
M245.000000,122.000000 
	C245.000000,162.630035 245.000000,203.260056 245.000000,243.945038 
	C163.776611,243.945038 82.553162,243.945038 1.000000,243.945038 
	C1.000000,204.313049 1.000000,164.625183 1.465810,124.468704 
	C9.682296,124.334076 17.466478,124.324432 25.176422,125.076180 
	C39.617832,126.484283 54.071884,127.962601 68.415184,130.114777 
	C80.192093,131.881882 91.914558,134.286972 103.439964,137.265259 
	C106.389755,138.027512 109.901062,141.635254 110.741623,144.616058 
	C113.442993,154.195694 115.608902,164.016495 116.891037,173.885910 
	C119.037079,190.405334 120.372322,207.031097 121.983597,223.618439 
	C122.559425,229.546432 122.946075,235.492813 123.506737,242.531219 
	C124.169861,239.846710 124.807701,238.188919 124.964066,236.486908 
	C126.357079,221.323837 127.258080,206.102951 129.114441,190.998688 
	C130.910660,176.384018 133.690216,161.891098 135.987625,147.336777 
	C137.301285,139.014709 142.050293,134.259109 150.386734,132.988815 
	C167.694504,130.351501 184.941391,127.217873 202.315262,125.141327 
	C216.466507,123.449959 230.766159,123.000282 245.000000,122.000000 
z" data-index="1" style="opacity: 1; stroke-width: 2px; stroke: rgb(13, 153, 255); visibility: hidden;"></path>
<path fill="#FFFFFF" opacity="1.000000" stroke="none" d="
M245.000000,121.750000 
	C230.766159,123.000282 216.466507,123.449959 202.315262,125.141327 
	C184.941391,127.217873 167.694504,130.351501 150.386734,132.988815 
	C142.050293,134.259109 137.301285,139.014709 135.987625,147.336777 
	C133.690216,161.891098 130.910660,176.384018 129.114441,190.998688 
	C127.258080,206.102951 126.357079,221.323837 124.964066,236.486908 
	C124.807701,238.188919 124.169861,239.846710 123.506737,242.531219 
	C122.946075,235.492813 122.559425,229.546432 121.983597,223.618439 
	C120.372322,207.031097 119.037079,190.405334 116.891037,173.885910 
	C115.608902,164.016495 113.442993,154.195694 110.741623,144.616058 
	C109.901062,141.635254 106.389755,138.027512 103.439964,137.265259 
	C91.914558,134.286972 80.192093,131.881882 68.415184,130.114777 
	C54.071884,127.962601 39.617832,126.484283 25.176422,125.076180 
	C17.466478,124.324432 9.682296,124.334076 1.465810,124.000046 
	C1.000000,123.555557 1.000000,123.111107 1.000000,122.333328 
	C15.349819,121.332748 29.759068,121.262894 44.033993,119.842804 
	C60.817959,118.173111 77.507874,115.477112 94.187088,112.893784 
	C98.226456,112.268150 102.443947,110.944786 105.865257,108.801872 
	C108.297752,107.278282 110.518272,104.055771 111.133369,101.222435 
	C114.073746,87.678108 116.913002,74.076180 118.869736,60.363663 
	C120.962112,45.700562 122.027786,30.890949 124.343788,15.776949 
	C124.895546,17.041832 125.880714,18.288464 125.934860,19.574301 
	C126.945015,43.561821 129.494293,67.375549 134.076477,90.943863 
	C134.860962,94.978821 136.483276,98.881813 137.996872,102.736481 
	C140.023239,107.897118 145.264359,108.668663 149.569748,109.653374 
	C159.480499,111.920151 169.560104,113.568459 179.643692,114.931015 
	C194.009201,116.872169 208.424530,118.483124 222.848923,119.933327 
	C229.888626,120.641083 236.996979,120.666260 244.537125,121.000206 
	C245.000000,121.000000 245.000000,121.500000 245.000000,121.750000 
z" data-index="2" style="opacity: 1;"></path>
</svg>